<?xml version="1.0" encoding="UTF-8" standalone="no"?>
<svg
   xmlns:dc="http://purl.org/dc/elements/1.1/"
   xmlns:cc="http://creativecommons.org/ns#"
   xmlns:rdf="http://www.w3.org/1999/02/22-rdf-syntax-ns#"
   xmlns:svg="http://www.w3.org/2000/svg"
   xmlns="http://www.w3.org/2000/svg"
   xmlns:sodipodi="http://sodipodi.sourceforge.net/DTD/sodipodi-0.dtd"
   xmlns:inkscape="http://www.inkscape.org/namespaces/inkscape"
   width="106.22317mm"
   height="110.31459mm"
   viewBox="0 0 106.22317 110.31459"
   version="1.1"
   id="svg1078"
   inkscape:version="1.0.2 (e86c870879, 2021-01-15)"
   sodipodi:docname="apple.svg">
  <defs
     id="defs1072" />
  <sodipodi:namedview
     id="base"
     pagecolor="#ffffff"
     bordercolor="#666666"
     borderopacity="1.0"
     inkscape:pageopacity="0.0"
     inkscape:pageshadow="2"
     inkscape:zoom="1.979899"
     inkscape:cx="793.36699"
     inkscape:cy="355.04319"
     inkscape:document-units="mm"
     inkscape:current-layer="layer1"
     inkscape:document-rotation="0"
     showgrid="false"
     fit-margin-top="13"
     fit-margin-left="13"
     fit-margin-right="13"
     fit-margin-bottom="13"
     inkscape:window-width="3840"
     inkscape:window-height="2136"
     inkscape:window-x="1920"
     inkscape:window-y="0"
     inkscape:window-maximized="1" />
  <metadata
     id="metadata1075">
    <rdf:RDF>
      <cc:Work
         rdf:about="">
        <dc:format>image/svg+xml</dc:format>
        <dc:type
           rdf:resource="http://purl.org/dc/dcmitype/StillImage" />
        <dc:title></dc:title>
      </cc:Work>
    </rdf:RDF>
  </metadata>
  <g
     inkscape:label="Ebene 1"
     inkscape:groupmode="layer"
     id="layer1"
     transform="translate(-18.399011,-18.900468)">
    <ellipse
       style="fill:#e7c0a5;fill-opacity:1;stroke:#ffffff;stroke-width:0.134937;stroke-linecap:round;stroke-linejoin:round;stroke-dasharray:0.809625, 0.809625"
       id="path1700"
       cx="51.453007"
       cy="70.786308"
       rx="14.530888"
       ry="15.667253" />
    <path
       id="path1679"
       style="fill:#962220;stroke-width:0.264583"
       d="m 89.828847,46.055246 c -2.03297,0.362772 -3.70977,1.674724 -5.5918,2.445313 -2.98044,1.346357 -6.01199,2.423185 -9.29726,2.61416 -1.52908,0.04239 -3.04564,-0.193468 -4.56016,-0.368067 -0.0394,2.091445 0.28214,4.199117 0.01,6.277344 -0.24974,0.447201 -0.69143,0.158768 -0.6752,-0.268924 -0.46384,-1.812059 -0.31058,-3.708128 -0.58854,-5.550858 -0.1114,-0.732402 -0.2119,-1.690217 -0.87528,-2.102323 -1.74239,-0.818624 -3.71091,-0.961163 -5.59926,-1.175551 -4.08208,-0.299179 -8.27053,-0.165795 -12.2111,1.022402 -6.58593,2.033635 -12.3036,6.763268 -15.42813,12.920924 -2.32855,4.391328 -3.57273,9.345063 -3.59301,14.316635 -0.11021,4.14068 0.21261,8.33561 1.4744,12.30092 1.40062,4.69184 3.3919,9.22816 6.03109,13.357729 2.20698,3.24493 4.96468,6.09199 7.92792,8.64975 4.47224,3.58434 10.1439,5.69765 15.89126,5.70696 2.04895,0.0762 4.13951,-0.15974 6.01055,-1.04274 2.55229,-0.93693 5.37037,-0.67977 7.91069,0.15804 2.68767,0.80275 5.54818,0.33373 8.24629,-0.17754 5.46072,-1.43742 10.08831,-4.99911 13.95879,-8.99824 4.891793,-5.13259 8.442713,-11.481029 10.583983,-18.222649 1.46634,-4.92987 2.19929,-10.08483 2.16708,-15.22761 -0.10188,-6.253668 -1.97158,-12.580064 -5.88683,-17.522434 -3.75964,-4.811295 -9.381343,-8.103485 -15.397443,-9.097616 -0.16878,0.0017 -0.34027,-0.03756 -0.50781,-0.01563 z m 1.18164,2.693359 c 3.42912,0.743738 6.73578,2.189341 9.411223,4.489389 4.19439,3.467832 7.04702,8.368141 8.1547,13.70295 0.49836,2.970665 0.30088,6.006097 0.31325,9.006437 0.13898,4.75706 -1.13844,9.41365 -2.73269,13.85201 -1.33161,3.49625 -2.97102,6.69305 -5.0996,9.78515 -3.260843,4.680579 -7.412143,8.872019 -12.543363,11.469289 -2.34803,1.22755 -4.90667,2.15804 -7.58496,2.1839 -2.07383,0.11361 -4.12524,-0.29872 -6.1002,-0.89147 -2.57654,-0.56489 -5.28786,-0.21167 -7.70662,0.80307 -1.8698,0.65225 -3.88006,0.91066 -5.84187,0.58255 -6.80415,-0.64313 -13.17227,-4.2231 -17.53597,-9.44179 -3.82904,-4.448819 -6.42101,-9.726419 -8.22108,-15.270809 -1.10729,-3.16085 -1.65426,-6.50617 -1.6969,-9.79094 -0.0439,-3.5728 -0.0161,-7.20998 1.04346,-10.65747 1.0072,-3.396882 2.60956,-6.912874 4.94854,-9.724583 3.60729,-4.393894 8.83573,-7.473359 14.45966,-8.363308 3.13705,-0.345344 6.32016,-0.368153 9.46145,-0.06358 0.93492,0.148036 1.94426,0.204784 2.80808,0.575301 0.21524,0.690838 0.27364,1.454247 0.35352,2.134766 -2.63666,-0.833331 -5.47879,-1.218389 -8.2252,-0.79552 -1.34343,0.201133 -2.83197,1.199541 -2.72047,2.713727 0.12289,1.872482 1.83261,3.08674 3.3126,3.956133 3.62339,2.035964 7.95339,2.937544 12.06273,2.141413 4.03679,-0.692374 8.07016,-2.143326 11.2147,-4.836131 0.78603,-0.803367 1.74289,-1.714491 1.78532,-2.910091 -0.0154,-0.700932 -0.45074,-1.297376 -0.99804,-1.695313 2.2801,-1.06185 4.47695,-2.324241 6.87109,-3.123046 0.26888,0.05599 0.53776,0.111979 0.80664,0.167968 z" />
    <text
       xml:space="preserve"
       style="font-size:3.175px;line-height:1.25;font-family:sans-serif;stroke-width:0.264583"
       x="-80.060989"
       y="40.967949"
       id="text1643"><tspan
         sodipodi:role="line"
         id="tspan1641"
         x="-80.060989"
         y="40.967949"
         style="stroke-width:0.264583" /></text>
    <path
       id="path1683"
       style="fill:#c8162b;stroke-width:0.264583"
       d="m 87.635487,46.723215 c -2.0036,0.173913 -3.63153,1.499366 -5.31857,2.464109 -0.68671,0.590467 -1.65235,0.435586 -2.46382,0.759914 -1.91578,0.467454 -3.78966,1.357436 -5.80659,1.142518 -0.87203,-0.0095 -1.74406,-0.01936 -2.6161,-0.02865 0.0353,1.429499 0.0653,2.859044 0.0527,4.289063 2.58855,-0.464182 4.98817,-1.594853 7.456,-2.459075 0.79109,-0.30389 1.58694,-0.595849 2.37408,-0.908113 0.39325,0.450993 1.16474,0.890817 0.88476,1.597657 -0.10486,0.950221 1.07253,1.020613 1.74894,1.059091 3.06961,0.326491 6.23051,0.172619 9.15152,-0.896605 0.96174,-0.270452 1.93594,-0.763668 2.88473,-0.905866 2.30109,1.119088 3.72435,3.396237 4.978303,5.529807 1.53801,2.73254 2.55721,5.709944 2.84346,8.806475 0.54375,4.509232 0.47204,9.174882 -0.99046,13.516792 -2.35279,7.33146 -7.477343,13.53597 -13.583213,18.18273 -4.66824,3.543958 -9.73025,6.489578 -15.26546,8.469648 -5.45144,1.82801 -11.13837,3.06437 -16.81651,3.95611 -2.25048,0.34921 -4.48158,0.52804 -6.76772,0.774 2.296,1.0709 4.61663,2.13676 7.11682,2.63603 2.44617,0.50868 4.97681,0.90369 7.47584,0.61594 2.44905,-0.27446 4.62524,-1.76672 7.137,-1.65858 1.31264,8e-4 2.41526,0.1745 3.7217,0.58929 2.8411,0.78544 5.89473,0.74311 8.75763,0.0888 3.48424,-1.01087 6.69785,-2.8367 9.58984,-5.00196 8.332453,-6.69594 13.720503,-16.618888 15.749303,-27.037448 0.81659,-3.82552 0.50113,-7.76435 0.55344,-11.646139 0.0608,-2.75622 -0.51991,-5.484091 -1.51859,-8.044142 -2.29149,-6.076593 -6.94887,-11.342721 -12.939203,-13.952422 -2.14212,-0.848923 -4.36862,-1.507053 -6.64929,-1.831722 -0.57226,-0.109864 -1.1589,-0.153117 -1.74058,-0.107261 z m -28.44336,4.771484 c -1.43395,-0.0075 -2.43388,1.463459 -2.24414,2.810547 0.0287,0.671965 0.90037,0.684708 1.23796,0.2177 0.93924,-0.580308 2.14862,-0.338415 3.20135,-0.319592 2.09265,0.102029 4.10014,0.829222 6.18569,0.937829 0.84096,0.02749 1.12951,-0.89829 0.98062,-1.586602 0.0372,-0.595199 -0.5666,-1.035302 -1.1232,-0.835272 -2.77436,-0.188335 -5.45363,-1.188725 -8.23828,-1.22461 z" />
    <path
       id="path1687"
       style="fill:#e54e1e;stroke-width:0.264583"
       d="m 58.737047,48.584543 c -3.48946,0.0612 -7.032,0.487543 -10.24835,1.920425 -5.8367,2.36782 -10.6264,7.045435 -13.29422,12.733958 -1.88795,3.967465 -2.96516,8.332575 -2.98282,12.734285 -0.0882,4.12794 0.13068,8.32315 1.43119,12.27331 1.34572,4.30307 2.99484,8.56121 5.39595,12.394249 3.12022,4.79696 7.22336,9.07582 12.26017,11.85977 1.34061,0.62305 2.85582,0.1526 4.26095,0.0768 5.96681,-0.77453 11.86919,-2.07166 17.61521,-3.85437 6.65582,-2.17918 12.78462,-5.80803 18.20691,-10.210829 6.18011,-5.07024 11.209083,-11.88787 13.067383,-19.75389 1.07624,-4.55035 0.84088,-9.309137 0.0826,-13.888552 -0.78871,-3.893124 -2.6004,-7.581824 -5.132853,-10.636458 -0.90916,-1.12985 -2.10277,-1.979502 -3.40816,-2.594011 -3.31656,1.13922 -6.73834,2.467128 -10.31454,2.08886 -0.96726,-0.08649 -1.92658,-0.243943 -2.89054,-0.360344 -1.23381,1.447238 -2.54618,2.881325 -4.26953,3.751953 -2.55889,1.44619 -5.49338,2.071665 -8.41382,2.125319 -2.7685,0.07977 -5.54962,0.04931 -8.13524,-1.08677 -1.29972,-0.582988 -2.76783,-1.128484 -3.63453,-2.317846 -0.65467,-1.019544 -0.40422,-2.777299 0.9707,-3.011719 2.25823,-0.296413 4.47201,0.516462 6.69712,0.780743 0.70665,0.03589 1.62328,0.417121 2.19682,-0.12615 0.40644,-0.944668 0.0935,-2.043372 -0.12252,-3.007376 -0.0988,-0.863511 -1.00933,-1.036731 -1.70881,-1.179026 -2.49508,-0.608538 -5.06897,-0.756266 -7.62902,-0.712331 z m -8.46093,7.484375 c 1.48208,0.148991 2.86768,1.480284 2.94422,2.984641 -0.2239,1.338205 -1.40985,2.22979 -2.25135,3.203174 -2.6578,2.617061 -5.16189,5.485242 -6.8622,8.827482 -0.84034,1.774426 -1.06799,3.747566 -1.692,5.590176 -0.96594,0.50596 -2.3131,-0.0149 -2.66263,-1.06949 -0.92417,-2.25198 -0.72394,-4.868629 -0.30026,-7.129733 0.57915,-2.607311 1.80163,-5.047705 3.28906,-7.251953 1.59489,-2.202071 3.64618,-4.350825 6.35742,-5.064453 0.38677,-0.08211 0.78269,-0.120874 1.17774,-0.08984 z" />
    <path
       style="fill:#66911f;stroke-width:0.264583"
       d="m 72.805887,52.097134 c -2.18141,-0.343592 -2.34481,-0.65923 -0.96733,-1.86867 2.80648,-2.464129 26.61438,-17.57904 27.70462,-17.57904 0.615013,0 0.01,2.183898 -1.33895,4.678081 -2.88458,5.335046 -6.01149,8.331075 -11.77463,11.281782 -5.39583,2.762647 -10.28352,4.013958 -13.62371,3.487847 z"
       id="path1685"
       sodipodi:nodetypes="ssssss" />
    <path
       style="fill:#307434;stroke-width:0.264583"
       d="m 70.953807,49.532747 c 0.0397,-1.940358 0.99643,-5.009968 2.39825,-7.387097 1.56967,-2.661741 5.13757,-6.162075 7.52362,-7.381138 4.14702,-2.118762 7.75314,-2.864044 13.85794,-2.864044 4.583,0 4.89507,0.04856 5.07631,0.675029 -0.0563,0.960865 -0.001,0.4187 -0.29627,0.118721 -1.04662,0 -18.94949,11.287653 -27.7922,17.673064 -0.34206,0.247006 -0.80472,0.977027 -0.80472,0.977027 z"
       id="path1677"
       sodipodi:nodetypes="ssssccscs" />
    <path
       style="fill:#503732;stroke-width:0.264583"
       d="m 68.922707,57.663163 c -0.33501,-0.511283 -0.50663,-1.567032 -0.64761,-3.983741 -0.10982,-1.882667 -0.32727,-3.451334 -0.50873,-3.669988 l -0.51672,-0.936997 c 0,-0.552898 -1.62035,-3.401994 -3.17535,-5.583281 -1.60231,-2.247645 -1.67469,-2.308928 -3.06911,-2.598409 -1.60683,-0.333576 -2.22221,-0.805241 -2.22221,-1.703235 0,-0.887494 1.53548,-3.001216 2.8716,-3.953007 0.97367,-0.693594 1.37429,-0.815122 2.5903,-0.785755 1.88659,0.04556 2.4756,0.558289 2.4756,2.154984 0,0.933877 0.27543,1.660415 1.31345,3.464722 2.05195,3.5667 2.68617,5.515241 2.85302,8.765345 0.0784,1.527968 0.23975,2.841662 0.35847,2.91932 0.11871,0.07766 0.25049,1.343924 0.29285,2.813925 0.0669,2.322737 0.011,2.745999 -0.42703,3.232243 -0.69582,0.772416 -1.63135,0.714226 -2.18853,-0.136126 z"
       id="path1675"
       sodipodi:nodetypes="ssccssssssssssss" />
  </g>
</svg>
